<svg height="48" viewBox="0 0 100 100" width="48" xmlns="http://www.w3.org/2000/svg"><path d="m49.875 21c-6.002544 0-10.875 4.87246-10.875 10.875v3.125c-2.752703 0-5 2.2473-5 5v7.25l-10-5.84375v-8.40625a1.0000999 1.0000999 0 0 0 -1.125-1.03125 1.0000999 1.0000999 0 0 0 -.875 1.03125v9a1.0000999 1.0000999 0 0 0 .5.84375l11.5 6.71875v4.4375h-18a1.0000999 1.0000999 0 0 0 -.1875 0 1.0043849 1.0043849 0 0 0 .1875 2h18v5c0 .135777.0279.27129.03125.40625l-11.53125 6.71875a1.0000999 1.0000999 0 0 0 -.5.875v9a1.0000999 1.0000999 0 1 0 2 0v-8.4375l10.21875-5.96875c1.230507 7.617501 7.812541 13.40625 15.78125 13.40625s14.550743-5.788749 15.78125-13.40625l10.21875 5.96875v8.4375a1.0000999 1.0000999 0 1 0 2 0v-9a1.0000999 1.0000999 0 0 0 -.5-.875l-11.53125-6.71875c.00335-.13496.03125-.270473.03125-.40625v-5h18a1.0000999 1.0000999 0 1 0 0-2h-18v-4.4375l11.5-6.71875a1.0000999 1.0000999 0 0 0 .5-.84375v-9a1.0000999 1.0000999 0 0 0 -1.125-1.03125 1.0000999 1.0000999 0 0 0 -.875 1.03125v8.40625l-10 5.84375v-7.25c0-2.7527-2.247297-5-5-5v-3.125c0-6.00254-4.872456-10.875-10.875-10.875zm0 2h.25c4.926364 0 8.875 3.94864 8.875 8.875v3.125h-18v-3.125c0-4.92636 3.948636-8.875 8.875-8.875zm-10.875 14h10v37.96875c-7.298479-.509195-13-6.53324-13-13.96875v-21c0-1.6793 1.320703-3 3-3zm12 0h10c1.679297 0 3 1.3207 3 3v21c0 7.43551-5.701521 13.459555-13 13.96875z"/></svg>